<svg xmlns="http://www.w3.org/2000/svg"  viewBox="0 0 24 24" width="16px" height="16px" baseProfile="basic"><path d="M21.13,18.74l-8.8,5.12C12.18,23.96,12,24,11.83,24c-0.17,0-0.35-0.04-0.5-0.13l-8.45-4.88	c-0.01,0-0.01,0-0.01,0c-0.03-0.01-0.06-0.01-0.08-0.01c-0.54-0.12-0.88-0.65-0.77-1.19l3.7-17.03c0.09-0.41,0.43-0.72,0.85-0.78	C6.99-0.06,7.4,0.14,7.59,0.52l2.34,4.62l1.09-1.79c0.19-0.31,0.53-0.49,0.89-0.47c0.36,0.01,0.69,0.22,0.85,0.54l1.83,3.55	l3.25-2.85c0.28-0.24,0.66-0.31,1-0.19c0.34,0.13,0.59,0.43,0.65,0.78l2.12,13C21.68,18.12,21.49,18.53,21.13,18.74z" opacity=".3"/><path d="M21.612,17.714l-2.125-13c-0.058-0.355-0.303-0.652-0.641-0.777c-0.337-0.121-0.716-0.059-0.992,0.176l-3.294,2.79	l-1.795-3.485c-0.166-0.321-0.492-0.528-0.853-0.541c-0.364-0.013-0.701,0.169-0.89,0.478L9.853,5.267l-2.25-4.723	C7.418,0.156,7.009-0.067,6.584-0.02C6.16,0.029,5.813,0.344,5.723,0.762l-3.7,17.026c-0.002,0.007,0.001,0.014,0,0.021	c-0.018,0.093-0.027,0.188-0.018,0.284c0.002,0.021,0.01,0.04,0.013,0.06c0.004,0.024,0.01,0.047,0.016,0.071	c0.026,0.111,0.064,0.217,0.124,0.311c0.001,0.002,0.002,0.004,0.003,0.006c0.061,0.095,0.143,0.174,0.233,0.244	c0.021,0.016,0.04,0.032,0.062,0.046c0.018,0.012,0.033,0.027,0.052,0.038l8.83,5C11.49,23.957,11.66,24,11.83,24	c0.174,0,0.348-0.045,0.503-0.136l8.795-5.125C21.486,18.53,21.679,18.123,21.612,17.714z M11.801,5.915l1.192,2.314l-1.232,1.043	L10.88,7.423L11.801,5.915z M10.097,10.43c0.029,0.06,0.077,0.102,0.115,0.153L7.6,12.795l2.036-3.334L10.097,10.43z M7.056,4.046	l1.553,3.259l-3.511,5.749L7.056,4.046z M11.822,21.847l-7.082-4.01L17.798,6.779l1.729,10.578L11.822,21.847z"/></svg>